# AST/ASF file generated using VICON BodyLanguage
# -----------------------------------------------
:version 1.10
:name VICON
:units
  mass 1.0
  length 0.45
  angle deg
:documentation
   .ast/.asf automatically generated from VICON data using
   VICON BodyBuilder and BodyLanguage model FoxedUp or BRILLIANT.MOD
:root
   order TX TY TZ RX RY RZ
   axis XYZ
   position 0 0 0  
   orientation 0 0 0 
:bonedata
  begin
     id 1 
     name lhipjoint
     direction 0.54267 -0.795011 0.271047 
     length 2.39899 
     axis 0 0 0  XYZ
  end
  begin
     id 2 
     name lfemur
     direction 0.34202 -0.939693 0  
     length 7.49701  
     axis 0 0 20  XYZ
    dof rx ry rz
    limits (-160.0 20.0)
           (-70.0 70.0)
           (-60.0 70.0)
  end
  begin
     id 3 
     name ltibia
     direction 0.34202 -0.939693 0   
     length 8.1668   
     axis 0 0 20   XYZ
    dof rx
    limits (-10.0 170.0)
  end
  begin
     id 4 
     name lfoot
     direction 0.0736283 -0.202292 0.976554   
     length 2.13544   
     axis -90 7.62852e-016 20   XYZ
    dof rx rz
    limits (-45.0 90.0)
           (-70.0 20.0)
  end
  begin
     id 5 
     name ltoes
     direction 1.53557e-011 -4.22024e-011 1   
     length 1.07411   
     axis -90 7.62852e-016 20   XYZ
    dof rx
    limits (-90.0 20.0)
  end
  begin
     id 6 
     name rhipjoint
     direction -0.538061 -0.797813 0.272002   
     length 2.39057  
     axis 0 0 0  XYZ 
  end
  begin
     id 7 
     name rfemur
     direction -0.34202 -0.939693 0   
     length 7.50152   
     axis 0 0 -20   XYZ
    dof rx ry rz
    limits (-160.0 20.0)
           (-70.0 70.0)
           (-70.0 60.0)
  end
  begin
     id 8 
     name rtibia
     direction -0.34202 -0.939693 0   
     length 8.05793   
     axis 0 0 -20   XYZ
    dof rx
    limits (-10.0 170.0)
 end
 begin
     id 9 
     name rfoot
     direction -0.0765195 -0.210236 0.974652   
     length 2.28698  
     axis -90 -7.62852e-016 -20   XYZ
    dof rx rz
    limits (-45.0 90.0)
           (-20.0 70.0)
  end
  begin
     id 10 
     name rtoes
     direction -1.53542e-011 -4.21847e-011 1   
     length 1.14762   
     axis -90 -7.62852e-016 -20   XYZ
    dof rx
    limits (-90.0 20.0)
  end
  begin
     id 11 
     name lowerback
     direction -0.0217239 0.996592 -0.0795765   
     length 2.08176   
     axis 0 0 0   XYZ
    dof rx ry rz
    limits (-20.0 45.0)
           (-30.0 30.0)
           (-30.0 30.0)
  end
  begin
     id 12 
     name upperback
     direction -0.00563773 0.999651 -0.0258155   
     length 2.08898   
     axis 0 0 0   XYZ
    dof rx ry rz
    limits (-20.0 45.0)
           (-30.0 30.0)
           (-30.0 30.0)
  end
  begin
     id 13 
     name thorax
     direction 0.0032706 0.999923 0.0119599   
     length 2.0968   
     axis 0 0 0   XYZ
    dof rx ry rz
    limits (-20.0 45.0)
           (-30.0 30.0)
           (-30.0 30.0)
  end
  begin
     id 14 
     name lowerneck
     direction -0.0285886 0.99568 0.0883427   
     length 1.81272   
     axis 0 0 0   XYZ
    dof rx ry rz
    limits (-20.0 45.0)
           (-30.0 30.0)
           (-30.0 30.0)
  end
  begin
     id 15 
     name upperneck
     direction 0.0807535 0.97985 -0.18268   
     length 1.82518   
     axis 0 0 0   XYZ
    dof rx ry rz
    limits (-20.0 45.0)
           (-30.0 30.0)
           (-30.0 30.0)
  end
  begin
     id 16
     name head
     direction 0.0236605 0.997053 -0.0729767  
     length 1.84443  
     axis 0 0 0   XYZ
    dof rx ry rz
    limits (-20.0 45.0)
           (-30.0 30.0)
           (-30.0 30.0)
  end
  begin
     id 17 
     name lclavicle
     direction 0.918986 0.39378 -0.0200683  
     length 3.27822  
     axis 0 0 0   XYZ
    dof ry rz
    limits (-20.0 10.0)
           (0.0 20.0)
  end
  begin
     id 18 
     name lhumerus
     direction 1 -4.4897e-011 2.09544e-027   
     length 5.5568   
     axis 180 -30 -90   XYZ
    dof rx ry rz
    limits (-60.0 90.0)
           (-90.0 90.0)
           (-90.0 90.0)
  end
  begin
     id 19
     name lradius
     direction 1 -4.48957e-011 -1.27696e-026   
     length 3.63979   
     axis 180 -30 -90   XYZ
    dof rx
    limits (-10.0 170.0)
  end
  begin
     id 20
     name lwrist
     direction 1 -4.49001e-011 -1.49001e-026   
     length 1.8199   
     axis 9.0955e-015 90 90   XYZ
    dof ry
    limits (-180.0 0.0)
 end
  begin
     id 21 
     name lhand
     direction 1 -4.48709e-011 -2.9758e-026   
     length 0.569419   
     axis 1.90115e-014 90 90   XYZ
    dof rx rz
    limits (-90.0 90.0)
           (-45.0 45.0)
  end
  begin
     id 22 
     name lfingers
     direction 1 -4.49175e-011 -5.96505e-026   
     length 0.45908   
     axis 3.80223e-014 90 90   XYZ
    dof rx
    limits (0.0 90.0)
  end
  begin
     id 23
     name lthumb
     direction 0.707107 -6.34864e-011 0.707107   
     length 0.65915   
     axis -90 45 -3.84942e-014   XYZ
    dof rx rz
    limits (-45.0 45.0)
           (-45.0 45.0)
  end
  begin
     id 24 
     name rclavicle
     direction -0.911913 0.396426 -0.106115   
     length 3.46301  
     axis 0 0 0   XYZ 
    dof ry rz
    limits (-10.0 20.0)
           (-20.0 0.0)
  end
  begin
     id 25 
     name rhumerus
     direction -1 -4.48965e-011 7.78516e-028  
     length 5.34339   
     axis 180 30 90   XYZ
    dof rx ry rz
    limits (-90.0 60.0)
           (-90.0 90.0)
           (-90.0 90.0)
  end
  begin
     id 26 
     name rradius
     direction -1 -4.48948e-011 -5.79823e-027   
     length 3.65101   
     axis 180 30 90   XYZ
    dof rx
    limits (-10.0 170.0)
  end
  begin
     id 27 
     name rwrist
     direction -1 -4.48995e-011 -1.48996e-026   
     length 1.8255   
     axis 9.0955e-015 -90 -90   XYZ
    dof ry
    limits (-180.0 0.0)
  end
  begin
     id 28
     name rhand
     direction -1 -4.48957e-011 -2.97937e-026   
     length 0.694249   
     axis 1.90115e-014 -90 -90   XYZ
    dof rx rz
    limits (-90.0 90.0)
           (-45.0 45.0)
  end
  begin
     id 29
     name rfingers
     direction -1 -4.4898e-011 -5.95943e-026   
     length 0.559721   
     axis 3.80223e-014 -90 -90   XYZ
    dof rx
    limits (0.0 90.0)
  end
  begin
     id 30
     name rthumb
     direction -0.707107 -6.34969e-011 0.707107   
     length 0.803651   
     axis -90 -45 3.84942e-014   XYZ
    dof rx rz
    limits (-45.0 45.0)
           (-45.0 45.0)
  end
:hierarchy
  begin
    root lhipjoint rhipjoint lowerback
    lhipjoint lfemur
    lfemur ltibia
    ltibia lfoot
    lfoot ltoes
    rhipjoint rfemur
    rfemur rtibia
    rtibia rfoot
    rfoot rtoes
    lowerback upperback
    upperback thorax
    thorax lowerneck lclavicle rclavicle
    lowerneck upperneck
    upperneck head
    lclavicle lhumerus
    lhumerus lradius
    lradius lwrist
    lwrist lhand lthumb
    lhand lfingers
    rclavicle rhumerus
    rhumerus rradius
    rradius rwrist
    rwrist rhand rthumb
    rhand rfingers
  end

#!OML:ASF H:\Terrain\Walking\May29\JustinRory\rory.ASF
:FULLY-SPECIFIED
:DEGREES
260
root 11.2323 16.335 -13.2578 -27.1538 62.0066 -28.9607
lowerback 17.7891 -1.18952 -0.0440188
upperback 7.63316 -1.12916 2.91476
thorax -1.73127 -0.473623 3.31083
lowerneck 2.6969 -21.0502 -11.8361
upperneck 4.85966 -31.0274 27.7096
head 7.52473 -15.0036 7.36169
rclavicle 3.69739e-014 -3.33958e-014
rhumerus 10.6807 -48.1043 -37.8485
rradius 19.8717
rwrist -26.7931
rhand -17.6813 6.26985
rfingers 7.12502
rthumb 8.57795 -23.5359
lclavicle 3.69739e-014 -3.33958e-014
lhumerus -28.4078 1.57918 60.5707
lradius 59.4292
lwrist -6.39829
lhand -20.5344 11.2452
lfingers 7.12502
lthumb 5.82391 41.1451
rfemur -16.8806 11.3566 7.45512
rtibia 32.0838
rfoot -9.14125 -10.001
rtoes -20.5069
lfemur -44.5435 3.91104 -13.9864
ltibia 74.2488
lfoot -24.2477 -3.41828
ltoes -14.8997
261
root 11.2738 16.3542 -13.2679 -27.3319 61.6998 -29.205
lowerback 17.4085 -1.00262 -0.236839
upperback 7.56747 -0.919883 3.13046
thorax -1.60703 -0.380208 3.60266
lowerneck 2.94585 -21.1339 -12.1163
upperneck 4.86408 -31.1416 27.5397
head 7.51831 -15.088 7.34135
rclavicle 8.66701e-014 1.35174e-014
rhumerus 11.1485 -48.1171 -38.0483
rradius 19.7434
rwrist -26.3594
rhand -17.4803 5.4426
rfingers 7.12502
rthumb 8.77192 -24.3551
lclavicle 8.66701e-014 1.35174e-014
lhumerus -27.3694 -0.0792044 62.1925
lradius 58.6621
lwrist -6.63815
lhand -20.8273 12.8315
lfingers 7.12502
lthumb 5.54114 42.739
rfemur -16.5604 11.4481 7.71818
rtibia 31.4889
rfoot -9.08327 -10.027
rtoes -18.0872
lfemur -43.8695 4.00018 -13.9902
ltibia 72.4339
lfoot -24.2725 -3.15385
ltoes -14.7053
262
root 11.3127 16.3748 -13.2847 -27.1198 61.4556 -28.9676
lowerback 17.1352 -0.894703 -0.540324
upperback 7.51531 -0.833971 3.19782
thorax -1.51845 -0.348223 3.82612
lowerneck 2.89326 -21.1724 -12.3564
upperneck 5.11598 -31.2156 27.193
head 7.59245 -15.113 7.23452
rclavicle 5.12864e-014 2.54444e-014
rhumerus 12.1323 -47.9924 -38.9256
rradius 19.6707
rwrist -27.0343
rhand -18.4997 5.04675
rfingers 7.12502
rthumb 7.78805 -24.7898
lclavicle 5.12864e-014 2.54444e-014
lhumerus -26.5635 -1.54962 63.4922
lradius 57.9756
lwrist -6.61098
lhand -21.0064 13.3663
lfingers 7.12502
lthumb 5.36817 43.2783
rfemur -16.2677 11.332 7.71999
rtibia 30.9088
rfoot -8.83904 -9.92833
rtoes -19.0153
lfemur -43.2155 3.85375 -14.1683
ltibia 70.5392
lfoot -24.331 -2.5925
ltoes -14.5998
263
root 11.3558 16.394 -13.3008 -26.9213 61.2719 -28.7983
lowerback 16.9753 -0.782025 -0.298983
upperback 7.30114 -0.668504 2.99338
thorax -1.68255 -0.259621 3.44027
lowerneck 3.09548 -21.2664 -12.4958
upperneck 5.21487 -31.3703 27.0489
head 7.61541 -15.2019 7.19339
rclavicle -7.55382e-015 -1.27222e-014
rhumerus 12.343 -48.2735 -39.5568
rradius 19.467
rwrist -27.4837
rhand -19.514 5.81897
rfingers 7.12502
rthumb 6.80901 -24.0515
lclavicle -7.55382e-015 -1.27222e-014
lhumerus -25.9408 -3.70462 64.4139
lradius 57.5949
lwrist -6.42157
lhand -21.0328 12.4527
lfingers 7.12502
lthumb 5.34265 42.3654
rfemur -15.9846 11.1405 7.71396
rtibia 30.3626
rfoot -8.25177 -9.8151
rtoes -22.3427
lfemur -42.5916 3.62417 -14.3259
ltibia 68.5518
lfoot -24.3733 -2.00687
ltoes -13.7739
264
root 11.3989 16.4091 -13.3098 -26.937 61.1681 -28.9532
lowerback 16.881 -0.727786 0.10283
upperback 7.00908 -0.552455 2.82946
thorax -1.95885 -0.193933 3.01753
lowerneck 3.02146 -21.3794 -12.6782
upperneck 5.5786 -31.5674 26.659
head 7.73675 -15.2749 7.03644
rclavicle 1.05356e-013 7.95139e-015
rhumerus 13.082 -49.6905 -40.6805
rradius 18.8569
rwrist -26.2909
rhand -19.8316 6.68273
rfingers 7.12502
rthumb 6.50239 -23.1975
lclavicle 1.05356e-013 7.95139e-015
lhumerus -25.3586 -5.67268 65.323
lradius 57.2656
lwrist -6.67478
lhand -20.6702 11.919
lfingers 7.12502
lthumb 5.69277 41.8226
rfemur -15.7059 11.1185 7.80862
rtibia 29.8264
rfoot -7.65638 -9.88151
rtoes -23.6422
lfemur -41.9778 3.34503 -14.3411
ltibia 66.5013
lfoot -24.3549 -1.78184
ltoes -12.3062
265
root 11.4388 16.4201 -13.3198 -27.2654 61.0416 -29.4499
lowerback 16.7769 -0.715719 0.291679
upperback 6.79212 -0.508061 2.9802
thorax -2.1371 -0.171825 3.06168
lowerneck 2.80959 -21.4532 -12.9961
upperneck 5.85166 -31.6555 26.1069
head 7.81837 -15.3004 6.85256
rclavicle 3.26007e-014 -2.22639e-014
rhumerus 15.0156 -51.8525 -42.6119
rradius 18.12
rwrist -23.9566
rhand -20.1132 6.71603
rfingers 7.12502
rthumb 6.23055 -23.1723
lclavicle 3.26007e-014 -2.22639e-014
lhumerus -25.0212 -6.95888 66.5203
lradius 57.1556
lwrist -7.45545
lhand -19.3295 12.5391
lfingers 7.12502
lthumb 6.98704 42.4038
rfemur -15.4087 11.3199 8.0658
rtibia 29.2893
rfoot -7.41769 -10.1556
rtoes -22.343
lfemur -41.4268 3.04735 -14.1839
ltibia 64.6168
lfoot -23.9228 -1.66734
ltoes -9.46305
266
root 11.4818 16.4257 -13.3413 -27.4665 61.0097 -29.6
lowerback 16.7189 -0.732489 0.502278
upperback 6.72731 -0.497616 3.02886
thorax -2.17778 -0.164298 2.9911
lowerneck 2.66852 -21.5098 -13.1571
upperneck 5.75326 -31.6546 25.7171
head 7.75602 -15.3104 6.73709
rclavicle 1.98785e-015 -1.59028e-015
rhumerus 17.3379 -54.4204 -45.0117
rradius 17.4118
rwrist -20.8434
rhand -20.362 6.23891
rfingers 7.12502
rthumb 5.99034 -23.6564
lclavicle 1.98785e-015 -1.59028e-015
lhumerus -24.9069 -8.49637 67.4797
lradius 57.6438
lwrist -7.47002
lhand -17.9029 13.2258
lfingers 7.12502
lthumb 8.36406 43.0402
rfemur -14.9544 11.3546 8.09039
rtibia 28.7942
rfoot -7.30125 -10.2441
rtoes -21.7908
lfemur -40.8225 2.84293 -14.3769
ltibia 63.2087
lfoot -22.2859 -1.70262
ltoes 0.470209
